<svg version="1.2" xmlns="http://www.w3.org/2000/svg" viewBox="0 0 2770 750" width="2770" height="750">
	<title>Logo Frangersal</title>
	<style>
		.s0 { fill: #064428 } 
		.s1 { fill: #e3e5d8 } 
		.s2 { fill: #000000 } 
	</style>
	<g id="Verde-Blanco-Negro">
		<path id="Forma 2" class="s0" d="m0 0h2770v750h-2770z"/>
		<path id="Forma 1 copy 3" class="s1" d="m100 100h2570v550h-2570z"/>
		<g id="FGSM Negro">
			<path id="&lt;fgsm/&gt;" class="s2" aria-label="&lt;fgsm/&gt;"  d="m478.6 549v-86.5l-139.3-87 139.3-87v-87.1l-278 174.1zm119.3 0v-138.8h208.4v-69.6h-208.4v-70.1h225.8v-69.6h-295.4v348.1zm538.5 0l34.3-34.3v-165.1h-156.6v69.6h87.5v60.2h-173.5v-208.9h173.5v34.8h69.1v-69.1l-34.3-35.3h-243.6l-34.3 35.3v278.5l34.3 34.3zm362 0l34.3-34.3v-139.8l-34.3-34.8h-208.4v-69.6h173.6v34.8h69.1v-69.1l-34.3-35.3h-243.7l-34.3 35.3v149.2l34.3 24.8h208.9v69.2h-173.6v-34.3h-69.6v69.6l34.3 34.3zm153.7 0v-234.7l92.9 133.7h58.2l91-133.7v234.7h69.6v-348.1h-67.1l-123.3 168.6-121.3-168.6h-69.6v348.1zm420.6 0l193.9-348.1h-82.5l-195.4 348.1zm496.7-173.6l-278-174v87l138.8 87-138.8 87.1v86.5z"/>
		</g>
	</g>
</svg>